HIERARCHY
ROOT Pelvis
{
	OFFSET 0.000000 0.000000 0.000000
	CHANNELS 6 Xposition Yposition Zposition Xrotation Yrotation Zrotation
	JOINT LeftUpLeg_virtual
	{
		OFFSET 0.000000 0.000000 0.000000
		CHANNELS 3 Xrotation Yrotation Zrotation
		JOINT LeftUpLeg
		{
			OFFSET 18.735201 -5.666702 -4.541200
			CHANNELS 3 Xrotation Yrotation Zrotation
			JOINT LeftLeg
			{
				OFFSET -0.021200 -31.938179 0.493100
				CHANNELS 3 Xrotation Yrotation Zrotation
				JOINT LeftFoot
				{
					OFFSET 0.021200 -31.938179 -4.336299
					CHANNELS 3 Xrotation Yrotation Zrotation
					JOINT LeftToeBase
					{
						OFFSET 0.943001 -26.722000 15.023500
						CHANNELS 3 Xrotation Yrotation Zrotation
						End Site
						{
							OFFSET 0 0 0
						}
					}
				}
			}
		}
	}
	JOINT RightUpLeg_virtual
	{
		OFFSET 0.000000 0.000000 0.000000
		CHANNELS 3 Xrotation Yrotation Zrotation
		JOINT RightUpLeg
		{
			OFFSET -18.735201 -5.666702 -4.541200
			CHANNELS 3 Xrotation Yrotation Zrotation
			JOINT RightLeg
			{
				OFFSET 0.018946 -31.938133 0.493100
				CHANNELS 3 Xrotation Yrotation Zrotation
				JOINT RightFoot
				{
					OFFSET -0.018946 -31.938126 -4.336299
					CHANNELS 3 Xrotation Yrotation Zrotation
					JOINT RightToeBase
					{
						OFFSET -0.943001 -26.722004 15.023500
						CHANNELS 3 Xrotation Yrotation Zrotation
						End Site
						{
							OFFSET 0 0 0
						}
					}
				}
			}
		}
	}
	JOINT Hips_virtual
	{
		OFFSET 0.000000 0.000000 0.000000
		CHANNELS 3 Xrotation Yrotation Zrotation
		JOINT Hips
		{
			OFFSET -0.000000 -0.000000 -0.000000
			CHANNELS 3 Xrotation Yrotation Zrotation
			JOINT Spine
			{
				OFFSET 0.000000 10.199997 -0.299500
				CHANNELS 3 Xrotation Yrotation Zrotation
				JOINT Spine1
				{
					OFFSET 0.000000 11.900002 -1.516600
					CHANNELS 3 Xrotation Yrotation Zrotation
					JOINT Spine2
					{
						OFFSET 0.000000 13.600006 -2.842500
						CHANNELS 3 Xrotation Yrotation Zrotation
						JOINT Neck_virtual
						{
							OFFSET 0.000000 0.000000 0.000000
							CHANNELS 3 Xrotation Yrotation Zrotation
							JOINT Neck
							{
								OFFSET 0.000000 9.624100 -2.890100
								CHANNELS 3 Xrotation Yrotation Zrotation
								JOINT Head
								{
									OFFSET 0.000000 14.068802 -1.351900
									CHANNELS 3 Xrotation Yrotation Zrotation
									End Site
									{
										OFFSET 0 0 0
									}
								}
							}
						}
						JOINT LeftShoulder_virtual
						{
							OFFSET 0.000000 0.000000 0.000000
							CHANNELS 3 Xrotation Yrotation Zrotation
							JOINT LeftShoulder
							{
								OFFSET 15.263000 10.923401 -0.547700
								CHANNELS 3 Xrotation Yrotation Zrotation
								JOINT LeftArm
								{
									OFFSET 25.438599 -2.830597 -13.032500
									CHANNELS 3 Xrotation Yrotation Zrotation
									JOINT LeftForeArm
									{
										OFFSET 29.960503 0.000000 0.000000
										CHANNELS 3 Xrotation Yrotation Zrotation
										JOINT LeftHand
										{
											OFFSET 27.849251 0.000000 0.000000
											CHANNELS 3 Xrotation Yrotation Zrotation
											End Site
											{
												OFFSET 0 0 0
											}
										}
									}
								}
							}
						}
						JOINT RightShoulder_virtual
						{
							OFFSET 0.000000 0.000000 0.000000
							CHANNELS 3 Xrotation Yrotation Zrotation
							JOINT RightShoulder
							{
								OFFSET -15.263000 10.923401 -0.547700
								CHANNELS 3 Xrotation Yrotation Zrotation
								JOINT RightArm
								{
									OFFSET -25.438599 -2.830597 -13.032500
									CHANNELS 3 Xrotation Yrotation Zrotation
									JOINT RightForeArm
									{
										OFFSET -29.960503 0.000000 0.000000
										CHANNELS 3 Xrotation Yrotation Zrotation
										JOINT RightHand
										{
											OFFSET -27.849251 0.000000 0.000000
											CHANNELS 3 Xrotation Yrotation Zrotation
											End Site
											{
												OFFSET 0 0 0
											}
										}
									}
								}
							}
						}
					}
				}
			}
		}
	}
}
MOTION
Frames: 8
Frame Time: 0.03333333
0.193711 55.541393 10.254593 0.000000 0.000000 0.000000 -0.840302 3.885551 2.017882 -98.992404 -9.742031 10.370712 84.486783 0.394296 2.907930 14.897727 -8.765541 -6.696348 0.000000 0.000000 0.000000 -0.304957 4.740103 1.778378 -101.221580 13.731800 -10.542854 85.047801 -1.063217 -0.747217 18.144099 1.132933 6.428519 0.000000 0.000000 0.000000 -0.149095 2.967801 2.108275 -0.167176 0.195582 -0.131460 9.614628 0.137113 -1.316754 0.592229 -0.374296 -0.543340 0.000000 0.000000 0.000000 0.412594 -0.295072 -0.488825 -0.783106 -0.195366 0.083847 0.000000 0.000000 0.000000 0.732978 -0.071085 -0.563853 0.840426 -14.475811 -6.694677 2.614900 -22.865320 -56.331360 1.918442 -59.020450 1.905826 0.000000 0.000000 0.000000 0.675853 -0.295248 -0.760078 3.987221 -1.680585 10.187966 -5.198570 39.330688 63.455381 -4.613631 56.184675 2.864005 0.000000 0.000000 0.000000 
0.267222 55.558411 10.108753 0.000000 0.000000 0.000000 -0.888209 3.711790 2.109945 -98.727871 -9.606437 10.411866 84.232427 0.522351 2.864692 14.904709 -8.689335 -6.734159 0.000000 0.000000 0.000000 -0.436829 4.553927 1.827572 -100.956883 13.627799 -10.579392 84.928006 -1.155137 -0.633157 17.467457 1.003405 6.434577 0.000000 0.000000 0.000000 -0.310082 2.727973 2.188762 -0.213606 0.139011 -0.112487 9.665566 0.137222 -1.317817 0.794211 -0.280447 -0.623101 0.000000 0.000000 0.000000 0.669760 -0.247379 -0.509144 -0.773709 -0.226573 0.158046 0.000000 0.000000 0.000000 0.929249 0.013094 -0.661446 0.865783 -14.659177 -6.765870 2.463452 -22.210590 -56.638510 2.106049 -57.880266 2.149398 0.000000 0.000000 0.000000 0.782521 -0.223238 -0.763565 3.995979 -1.654125 9.808148 -5.848133 38.567780 62.940343 -3.922059 56.256030 2.393713 0.000000 0.000000 0.000000 
0.337893 55.585018 9.997021 0.000000 0.000000 0.000000 -1.322447 3.424275 2.271972 -98.241896 -9.314278 10.600163 83.875584 0.771429 2.708270 15.034406 -8.584949 -6.663333 0.000000 0.000000 0.000000 -0.896203 4.310929 1.954596 -100.456401 13.430963 -10.709685 84.716838 -1.229275 -0.547729 17.011918 0.953271 6.485134 0.000000 0.000000 0.000000 -0.844664 2.515933 2.348684 -0.204973 0.080930 -0.074201 9.655350 0.190429 -1.443554 1.377155 -0.209350 -0.663341 0.000000 0.000000 0.000000 1.325039 -0.188728 -0.506388 -0.659369 -0.291141 0.190826 0.000000 0.000000 0.000000 1.515490 0.092009 -0.707626 0.904437 -15.318091 -6.663293 2.201177 -21.409993 -56.124788 2.323557 -59.146822 2.450635 0.000000 0.000000 0.000000 1.283278 -0.144282 -0.708793 3.845980 -1.170911 9.941684 -6.033731 37.490765 60.574530 -2.885095 57.038794 1.762312 0.000000 0.000000 0.000000 
0.401340 55.623615 9.924149 0.000000 0.000000 0.000000 -2.064410 3.049078 2.489447 -97.656139 -8.945054 10.838429 83.544367 1.119279 2.494813 15.291098 -8.456061 -6.488186 0.000000 0.000000 0.000000 -1.618082 3.957980 2.142666 -99.896639 13.274347 -10.794900 84.433528 -1.268388 -0.575455 17.095772 1.019891 6.526672 0.000000 0.000000 0.000000 -1.680983 2.344469 2.566096 -0.167080 0.117131 -0.043733 9.578054 0.233157 -1.649559 2.307076 -0.171503 -0.694347 0.000000 0.000000 0.000000 2.335191 -0.129553 -0.515182 -0.464344 -0.377982 0.181377 0.000000 0.000000 0.000000 2.452257 0.153223 -0.723613 0.961305 -16.388894 -6.406109 1.637876 -20.547497 -54.727212 2.800316 -63.469328 2.976703 0.000000 0.000000 0.000000 2.159467 -0.058758 -0.637223 3.567113 -0.390528 10.454648 -5.552071 36.060745 56.457312 -1.647583 60.076746 1.041655 0.000000 0.000000 0.000000 
0.441017 55.684273 9.900219 0.000000 0.000000 0.000000 -2.961634 2.586948 2.732767 -97.028991 -8.613394 11.027528 83.353921 1.474011 2.326219 15.505417 -8.375575 -6.334318 0.000000 0.000000 0.000000 -2.465438 3.578668 2.373840 -99.377661 13.209793 -10.813719 84.097387 -1.338193 -0.710751 17.471030 1.061954 6.411241 0.000000 0.000000 0.000000 -2.661328 2.211497 2.807668 -0.149250 0.212091 -0.066979 9.353207 0.215367 -1.879881 3.512810 -0.167978 -0.740980 0.000000 0.000000 0.000000 3.607238 -0.090756 -0.554920 -0.228296 -0.459883 0.141763 0.000000 0.000000 0.000000 3.672189 0.186770 -0.762691 1.048037 -17.622827 -6.124466 0.764907 -19.906120 -52.376015 3.848725 -70.664802 4.027672 0.000000 0.000000 0.000000 3.325880 0.021375 -0.582369 3.192768 0.678260 11.197926 -4.839478 34.424959 51.279144 -0.248469 66.252070 0.160842 0.000000 0.000000 0.000000 
0.438983 55.748123 9.945457 0.000000 0.000000 0.000000 -3.793604 2.087679 2.980113 -96.429546 -8.378468 11.141726 83.313807 1.761519 2.274489 15.650111 -8.437691 -6.346838 0.000000 0.000000 0.000000 -3.240047 3.196003 2.633553 -99.011850 13.227317 -10.774459 83.913443 -1.469299 -0.877114 17.633061 0.954026 6.052713 0.000000 0.000000 0.000000 -3.601006 2.118496 3.056327 -0.170440 0.222029 -0.094534 8.922957 0.083454 -2.046220 4.856150 -0.174090 -0.808507 0.000000 0.000000 0.000000 4.960442 -0.075925 -0.631083 0.021814 -0.511938 0.086377 0.000000 0.000000 0.000000 5.003756 0.181556 -0.845183 1.176283 -18.706256 -5.783886 -0.954736 -19.656996 -48.926154 6.742374 -79.596463 6.930168 0.000000 0.000000 0.000000 4.650517 0.068690 -0.556126 2.751955 2.065266 11.842161 -4.851362 32.676069 45.575544 1.954306 75.747959 -1.553858 0.000000 0.000000 0.000000 
0.420123 55.794968 10.053951 0.000000 0.000000 0.000000 -4.355247 1.608474 3.214524 -96.005726 -8.243500 11.219356 83.449967 1.972512 2.296084 15.825109 -8.618293 -6.548608 0.000000 0.000000 0.000000 -3.765247 2.819916 2.890329 -98.948322 13.310957 -10.725942 84.071064 -1.618086 -0.993786 17.485598 0.726786 5.567717 0.000000 0.000000 0.000000 -4.277815 2.031399 3.282879 -0.241308 0.103563 -0.192766 8.331233 -0.155288 -2.130515 6.145475 -0.197369 -0.908932 0.000000 0.000000 0.000000 6.239432 -0.093339 -0.734430 0.266515 -0.517479 0.029621 0.000000 0.000000 0.000000 6.280931 0.146629 -0.972756 1.323479 -19.383706 -5.279341 -4.278722 -19.761887 -44.250467 49.768074 -88.606050 49.963906 0.000000 0.000000 0.000000 5.962976 0.095268 -0.586462 2.256664 3.758966 12.068185 -6.385680 30.934128 39.600935 17.263844 87.217718 -16.501247 0.000000 0.000000 0.000000 
0.399087 55.796013 10.249680 0.000000 0.000000 0.000000 -4.478450 1.189896 3.407678 -95.961918 -8.213608 11.256352 83.860106 2.141349 2.339489 16.058067 -8.802783 -6.828947 0.000000 0.000000 0.000000 -3.876799 2.495663 3.115949 -99.321770 13.498850 -10.693095 84.529554 -1.689297 -1.047352 17.290033 0.548775 5.217691 0.000000 0.000000 0.000000 -4.490003 1.970528 3.462928 -0.222539 -0.029879 -0.276708 7.687661 -0.477931 -2.134804 7.195020 -0.237185 -1.038033 0.000000 0.000000 0.000000 7.290009 -0.156551 -0.856293 0.493286 -0.476406 -0.023252 0.000000 0.000000 0.000000 7.339381 0.081742 -1.114327 1.507951 -19.436113 -4.378393 -9.745730 -20.365648 -38.243851 173.763305 -82.258741 174.011842 0.000000 0.000000 0.000000 7.113339 0.076134 -0.649910 1.756637 5.567055 11.600918 -10.037259 29.410733 33.701256 173.864337 80.988312 -172.862812 0.000000 0.000000 0.000000 
